<svg width="193" height="193" viewBox="0 0 193 193" fill="none" xmlns="http://www.w3.org/2000/svg">
<g clip-path="url(#clip0_693_31775)">
<path d="M96.4058 1C68.5659 1 0 69.5645 0 97.4058C0 125.247 68.5659 193.813 96.4058 193.813C124.246 193.813 192.813 125.246 192.813 97.4058C192.813 69.5656 124.247 1 96.4058 1ZM81.3825 152.534C69.6428 149.335 38.0793 94.1222 41.2789 82.3824C44.4785 70.642 99.6899 39.0792 111.43 42.2788C123.17 45.4779 154.733 100.689 151.534 112.43C148.334 124.17 93.1223 155.734 81.3825 152.534Z" fill="#836EF9"/>
<path d="M96.4058 1C68.5659 1 0 69.5645 0 97.4058C0 125.247 68.5659 193.813 96.4058 193.813C124.246 193.813 192.813 125.246 192.813 97.4058C192.813 69.5656 124.247 1 96.4058 1ZM81.3825 152.534C69.6428 149.335 38.0793 94.1222 41.2789 82.3824C44.4785 70.642 99.6899 39.0792 111.43 42.2788C123.17 45.4779 154.733 100.689 151.534 112.43C148.334 124.17 93.1223 155.734 81.3825 152.534Z" fill="#836EF9"/>
</g>
<defs>
<clipPath id="clip0_693_31775">
<rect width="192.813" height="192.813" fill="white"/>
</clipPath>
</defs>
</svg>
